<?xml version="1.0" standalone="no"?>
<!DOCTYPE svg PUBLIC "-//W3C//DTD SVG 20010904//EN"
 "http://www.w3.org/TR/2001/REC-SVG-20010904/DTD/svg10.dtd">
<svg version="1.0" xmlns="http://www.w3.org/2000/svg"
 width="800.000000pt" height="800.000000pt" viewBox="0 0 800.000000 800.000000"
 preserveAspectRatio="xMidYMid meet">
<metadata>
Created by potrace 1.11, written by Peter Selinger 2001-2013
</metadata>
<g transform="translate(0.000000,800.000000) scale(0.100000,-0.100000)"
fill="#000000" stroke="none">
<path d="M5795 5750 c-159 -28 -495 -123 -482 -136 2 -3 15 0 29 5 55 21 259
61 357 70 197 18 371 -21 386 -87 36 -165 -487 -816 -1130 -1407 -38 -34 -174
-157 -235 -210 -100 -89 -300 -255 -349 -290 -16 -11 -111 -83 -212 -159 -529
-401 -1085 -709 -1555 -861 -162 -52 -407 -112 -512 -124 -335 -41 -344 111
-25 437 65 65 141 139 168 162 70 60 37 40 -70 -43 -272 -213 -535 -459 -574
-539 -36 -74 -23 -129 41 -183 80 -67 212 -97 423 -97 84 0 196 7 254 16 141
22 137 22 152 -21 6 -21 20 -55 31 -76 l19 -37 212 2 212 3 65 163 65 163 141
58 c158 65 394 179 559 271 148 83 295 170 324 192 24 18 52 24 50 11 -1 -5
-1 -198 0 -430 l1 -423 265 0 265 0 2 617 3 617 178 139 c98 76 182 135 186
132 5 -3 48 -74 97 -157 78 -136 539 -936 711 -1235 l65 -112 295 -3 c190 -2
297 1 299 7 2 6 3 663 2 1460 l-3 1450 -40 0 c-22 0 -39 5 -38 10 2 6 19 51
40 100 36 86 38 95 38 205 0 126 -11 161 -74 233 -99 113 -361 157 -636 107z
m173 -2390 l-3 -392 -104 184 c-57 101 -187 328 -288 506 l-183 322 37 33 c21
19 81 71 133 118 52 46 165 152 250 236 l155 152 3 -384 c1 -211 1 -560 0
-775z"/>
<path d="M4438 5092 l-298 -2 -2 -725 c-2 -399 0 -725 4 -725 11 0 388 304
465 374 l62 57 3 127 3 127 48 -83 49 -82 81 72 c45 40 121 111 169 158 l88
85 -61 105 c-34 58 -72 125 -86 150 -119 213 -207 359 -216 362 -7 2 -146 2
-309 0z"/>
<path d="M1386 5033 c13 -32 69 -175 125 -318 55 -143 116 -300 136 -350 228
-580 413 -1061 411 -1070 -2 -7 -61 -61 -133 -122 -154 -131 -343 -322 -407
-413 -58 -83 -105 -175 -118 -236 -21 -92 32 -191 131 -248 l34 -20 -38 43
c-51 57 -69 102 -69 174 0 142 149 332 439 559 120 95 579 404 805 543 81 49
145 91 144 93 -2 1 -79 -31 -172 -73 -93 -42 -173 -77 -177 -78 -7 -2 -59 139
-241 653 -20 58 -101 287 -180 510 l-143 405 -286 3 -286 2 25 -57z"/>
<path d="M3388 4757 c-64 -182 -163 -460 -218 -617 -105 -295 -114 -320 -225
-635 -36 -104 -86 -244 -110 -310 -23 -66 -58 -164 -76 -217 -19 -54 -37 -98
-40 -98 -8 0 -139 370 -139 391 0 18 67 116 116 172 19 20 34 40 34 43 0 11
-329 -298 -450 -422 -202 -207 -290 -317 -290 -360 0 -37 31 -54 96 -53 l59 1
-49 8 c-26 5 -54 11 -62 14 -37 14 0 83 103 185 37 38 67 61 72 55 5 -5 28
-57 51 -116 41 -104 43 -108 69 -102 14 4 100 29 190 56 208 63 392 136 601
241 l165 82 31 75 c26 64 113 285 224 575 15 39 70 180 123 315 218 556 407
1043 407 1046 0 2 -127 4 -282 4 l-283 0 -117 -333z"/>
</g>
</svg>
